# xmcd
#
# Track frame offsets:
# 150
# 13971
# 27988
# 43926
# 56235
# 67271
# 87541
# 102219
# 116864
# 129625
# 145892
# 155391
# 170457
# 185553
#
# Disc length: 2592 seconds
#
#
# Revision: 0
# Processed by: cddbd v1.5.2PL0 Copyright (c) Steve Scherf et al.
# Submitted via: FreeRIP 2.96 
#
DISCID=d60a1e0e
DTITLE=Liu and Léu - Alma Sertaneja
DYEAR=1900
DGENRE=Sertanejo
TTITLE0=Saudade de minha terra
TTITLE1=Grão de areia
TTITLE2=Pioneiro do sertão
TTITLE3=Estrela Guia
TTITLE4=Saudade de um grande amor
TTITLE5=Casinha de praia
TTITLE6=Lamento de uma saudade
TTITLE7=Vida fingida
TTITLE8=Recordação
TTITLE9=Travessia do araguaia
TTITLE10=Essa terra é boa
TTITLE11=Apenas um pecado
TTITLE12=Amor e fidelidade
TTITLE13=Capricho da vida
EXTD=
EXTT0=
EXTT1=
EXTT2=
EXTT3=
EXTT4=
EXTT5=
EXTT6=
EXTT7=
EXTT8=
EXTT9=
EXTT10=
EXTT11=
EXTT12=
EXTT13=
PLAYORDER=
